<?xml version="1.0" encoding="UTF-8" standalone="no"?>
<svg
   width="2500"
   height="2500"
   viewBox="0 0 192.756 192.756"
   version="1.1"
   id="svg18"
   sodipodi:docname="hyundai-202806.svg"
   inkscape:version="1.1.2 (b8e25be833, 2022-02-05)"
   xmlns:inkscape="http://www.inkscape.org/namespaces/inkscape"
   xmlns:sodipodi="http://sodipodi.sourceforge.net/DTD/sodipodi-0.dtd"
   xmlns="http://www.w3.org/2000/svg"
   xmlns:svg="http://www.w3.org/2000/svg">
  <defs
     id="defs22" />
  <sodipodi:namedview
     id="namedview20"
     pagecolor="#ffffff"
     bordercolor="#666666"
     borderopacity="1.0"
     inkscape:pageshadow="2"
     inkscape:pageopacity="0.0"
     inkscape:pagecheckerboard="0"
     showgrid="false"
     inkscape:zoom="0.3232"
     inkscape:cx="1248.453"
     inkscape:cy="1251.547"
     inkscape:window-width="1920"
     inkscape:window-height="1001"
     inkscape:window-x="-9"
     inkscape:window-y="-9"
     inkscape:window-maximized="1"
     inkscape:current-layer="g16" />
  <g
     fill-rule="evenodd"
     clip-rule="evenodd"
     id="g16">
    <path
       fill="#fff"
       d="M0 0h192.756v192.756H0V0z"
       id="path2" />
    <path
       fill="#2566af"
       d="M92.015 31.285c-21.995 0-40.328 8.806-40.328 19.715 0 10.912 18.333 20.093 40.328 20.093 21.805 0 40.331-9.181 40.331-20.093 0-10.909-18.526-19.715-40.331-19.715zm-5.138 5.269c3.28-1.58 12.542-1.354 20.744.375 5.018 2.709-5.691 8.051-13.508 9.558-10.998 2.558-15.244-2.108-7.236-9.933zM63.63 59.699c-15.74-7.604-1.827-22.417 9.242-23.685h.507c5.586-.396 2.132 2.931 2.132 2.931-3.656 4.277-7.615 12.751-8.733 19.486.001 3.327-3.148 1.268-3.148 1.268zm29.71 7.707c-5.498.226-13.506 0-17.269-1.731-2.026-.979-1.736-1.955 1.544-4.89 10.227-7.452 25.759-8.428 25.566-1.204-2.314 5.267-3.57 6.847-9.841 7.825zm17.271-2.558c-2.701.375-3.475-.152-1.736-1.732 3.57-4.514 7.236-13.695 7.814-19.339-.578-3.311 2.219-2.333 4.244-1.355 14.28 6.999.965 21.072-10.322 22.426z"
       id="path14" />
  </g>
</svg>
